
	<svg xmlns="http://www.w3.org/2000/svg" xmlns:xlink="http://www.w3.org/1999/xlink" version="1.1" width="512" height="512" viewBox="0 0 100 100">


		<defs>
			<linearGradient id="Gradient_2" gradientUnits="userSpaceOnUse" x1="50" y1="0" x2="50" y2="59" spreadMethod="pad">
<stop offset="0%" stop-color="#FFFFFF" stop-opacity="0.3"/>

<stop offset="100%" stop-color="#FFFFFF" stop-opacity="0.7"/>
</linearGradient><linearGradient id="Gradient_3" gradientUnits="userSpaceOnUse" x1="85" y1="8" x2="41" y2="58" spreadMethod="pad">
<stop offset="0%" stop-color="#FFFFFF" stop-opacity="0.1"/>

<stop offset="100%" stop-color="#FFFFFF" stop-opacity="0.7"/>
</linearGradient><linearGradient id="Gradient_4" gradientUnits="userSpaceOnUse" x1="24" y1="17" x2="49" y2="49" spreadMethod="pad">
<stop offset="0%" stop-color="#FFFFFF" stop-opacity="0.1"/>

<stop offset="100%" stop-color="#FFFFFF" stop-opacity="0.7"/>
</linearGradient><g id="background">
<path fill="url(#background-gradient)" stroke="none" d=" M 97.25 38.05 Q 95.4 24 85.05 13.25 75.95 3.85 63.8 1.1 51.7 -1.7 38.7 2.65 25.85 6.95 16.5 16.85 7.35 26.6 6.15 36.7 9.95 24.8 19 17.05 26.95 10.15 39.8 5.85 51.85 1.85 63.05 4.4 74.25 6.95 82.6 15.6 92.2 25.55 93.85 38.6 95.6 51.6 89.05 64.8 81.8 79.4 67.2 88.4 50.6 98.6 31.7 96.15 21.95 94.9 15 88.05 8.1 81.2 6.25 71.05 4.65 62.1 10.95 53.1 17.3 43.9 30.35 36.95 32.25 35.95 32.95 34.3 33.65 32.45 32.45 30.7 31.3 29 27.6 29.75 L 24.2 30.9 Q 10.9 37.95 5.5 50.25 1 60.55 2.95 71.65 4.95 82.95 12.65 90.5 20.4 98.1 31.3 99.55 34.8 100 38.7 100 54.2 100 67.85 92.05 75.6 87.5 81.85 80.85 88.15 74.2 92.05 66.35 99.1 52.1 97.25 38.05 Z"/>
</g><mask id="mask">
<path fill="#FFFFFF" stroke="none" d=" M 93.85 38.6 Q 92.2 25.55 82.6 15.6 74.25 6.95 63.05 4.4 51.85 1.85 39.8 5.85 26.95 10.15 19 17.05 10.25 24.55 6.45 35.9 6.15 36.9 5.95 38 2.6 53.15 2.4 63.15 2.75 56.5 5.5 50.25 10.9 37.95 24.2 30.9 L 27.6 29.75 Q 31.3 29 32.45 30.7 33.65 32.45 32.95 34.3 32.25 35.95 30.35 36.95 17.3 43.9 10.95 53.1 4.65 62.1 6.25 71.05 8.1 81.2 15 88.05 21.95 94.9 31.7 96.15 50.6 98.6 67.2 88.4 81.8 79.4 89.05 64.8 95.6 51.6 93.85 38.6 Z"/>
</mask><g id="gloss-top">
<path fill="url(#Gradient_2)" stroke="none" d=" M 32.95 34.3 Q 33.65 32.45 32.45 30.7 31.3 29 27.6 29.75 L 24.2 30.9 Q 15.2 35.65 9.75 42.95 4.9 49.4 3.2 57.25 5.45 58.3 7.6 59.15 10.1 53 15.8 47.4 21.65 41.6 30.35 36.95 32.25 35.95 32.95 34.3 M 96.05 32.2 Q 93.1 21.6 85.05 13.25 75.95 3.85 63.8 1.1 51.7 -1.7 38.7 2.65 25.85 6.95 16.5 16.85 7.35 26.6 6.15 36.7 9.95 24.8 19 17.05 26.95 10.15 39.8 5.85 51.85 1.85 63.05 4.4 74.25 6.95 82.6 15.6 90.55 23.85 93.1 34.4 95.65 44.9 92.45 56 94.75 54.9 96.5 53.85 99 42.65 96.05 32.2 Z"/>
</g><g id="gloss-right">
<path fill="url(#Gradient_3)" stroke="none" d=" M 32.95 34.3 Q 33.65 32.45 32.45 30.7 31.3 29 27.6 29.75 L 24.2 30.9 Q 19.85 33.2 16.2 36.2 18.3 39.75 20.8 43.05 25.1 39.75 30.35 36.95 32.25 35.95 32.95 34.3 M 97.25 38.05 Q 95.4 24 85.05 13.25 75.95 3.85 63.8 1.1 51.7 -1.7 38.7 2.65 29.85 5.65 22.25 11.6 14.95 17.35 10.6 24.5 L 11.2 26 Q 15.85 18.8 23.4 13.65 30.15 9.1 39.8 5.85 51.85 1.85 63.05 4.4 74.25 6.95 82.6 15.6 92.2 25.55 93.85 38.6 95.6 51.6 89.05 64.8 86.65 69.55 83.1 74.2 85.25 74 87.75 73.55 90.15 70.15 92.05 66.35 99.1 52.1 97.25 38.05 Z"/>
</g><g id="gloss-left">
<path fill="url(#Gradient_4)" stroke="none" d=" M 30.35 36.95 Q 32.25 35.95 32.95 34.3 33.65 32.45 32.45 30.7 31.3 29 27.6 29.75 L 24.2 30.9 Q 10.9 37.95 5.5 50.25 1 60.55 2.95 71.65 L 3.1 72.6 Q 5.25 73.2 6.8 73.5 L 6.25 71.05 Q 4.65 62.1 10.95 53.1 17.3 43.9 30.35 36.95 M 86.85 15.2 Q 85.7 13.9 85.05 13.25 75.95 3.85 63.8 1.1 51.7 -1.7 38.7 2.65 25.85 6.95 16.5 16.85 7.35 26.6 6.15 36.7 9.95 24.8 19 17.05 26.95 10.15 39.8 5.85 51.85 1.85 63.05 4.4 74.25 6.95 82.6 15.6 84.5 17.6 85.9 19.4 86.45 17.4 86.85 15.2 Z"/>
</g>
			
	<linearGradient id="background-gradient" x1="0" y1="0" y2="1" x2="0" >
		<stop stop-color="#0463f1" offset="0%"/>
		<stop stop-color="#a0f3fa" offset="100%"/>
	</linearGradient>

			
			
			<g transform="scale(0.35995306813085076) translate(-11.59301471710205 -11.842998504638672)" id="picture"><path d="M70.546 11.843H16.82c-2.686 0-4.477 1.79-4.477 4.477v53.726c0 2.686 1.79 4.477 4.477 4.477h53.726c2.686 0 4.477-1.791 4.477-4.477V16.32c0-2.686-1.791-4.477-4.477-4.477zM66.069 65.57H21.297V20.797H66.07V65.57zm76.11-53.726H88.455c-2.686 0-4.477 1.79-4.477 4.477v53.726c0 2.686 1.79 4.477 4.477 4.477h53.726c2.686 0 4.477-1.791 4.477-4.477V16.32c0-2.686-1.791-4.477-4.477-4.477zm-4.477 53.726h-44.77V20.797h44.77V65.57zM70.546 83.477H16.82c-2.686 0-4.477 1.79-4.477 4.477v53.726c0 2.686 1.79 4.477 4.477 4.477h53.726c2.686 0 4.477-1.791 4.477-4.477V87.954c0-2.686-1.791-4.477-4.477-4.477zm-4.477 53.725H21.297v-44.77H66.07v44.77zm76.11-53.725H88.455c-2.686 0-4.477 1.79-4.477 4.477v53.726c0 2.686 1.79 4.477 4.477 4.477h53.726c2.686 0 4.477-1.791 4.477-4.477V87.954c0-2.686-1.791-4.477-4.477-4.477zm-4.477 53.725h-44.77v-44.77h44.77v44.77zm74.844 18.141H158.82c-2.686 0-4.477 1.79-4.477 4.477v53.726c0 2.686 1.79 4.477 4.477 4.477h53.726c2.686 0 4.477-1.791 4.477-4.477V159.82c0-2.686-1.791-4.477-4.477-4.477zm-4.478 53.725h-44.77v-44.77h44.77v44.77zm76.111-53.725h-53.725c-2.686 0-4.477 1.79-4.477 4.477v53.726c0 2.686 1.79 4.477 4.477 4.477h53.725c2.687 0 4.478-1.791 4.478-4.477V159.82c0-2.686-1.791-4.477-4.478-4.477zm-4.477 53.725h-44.77v-44.77h44.77v44.77zm-67.156 17.909H158.82c-2.686 0-4.477 1.79-4.477 4.477v53.725c0 2.687 1.79 4.478 4.477 4.478h53.726c2.686 0 4.477-1.791 4.477-4.478v-53.725c0-2.686-1.791-4.477-4.477-4.477zm-4.478 53.725h-44.77v-44.77h44.77v44.77zm76.111-53.725h-53.725c-2.686 0-4.477 1.79-4.477 4.477v53.725c0 2.687 1.79 4.478 4.477 4.478h53.725c2.687 0 4.478-1.791 4.478-4.478v-53.725c0-2.686-1.791-4.477-4.478-4.477zm-4.477 53.725h-44.77v-44.77h44.77v44.77zM212.546 11.843H158.82c-2.686 0-4.477 1.79-4.477 4.477v53.726c0 2.686 1.79 4.477 4.477 4.477h53.726c2.686 0 4.477-1.791 4.477-4.477V16.32c0-2.686-1.791-4.477-4.477-4.477zm-4.478 53.726h-44.77V20.797h44.77V65.57zm76.111-53.726h-53.725c-2.686 0-4.477 1.79-4.477 4.477v53.726c0 2.686 1.79 4.477 4.477 4.477h53.725c2.687 0 4.478-1.791 4.478-4.477V16.32c0-2.686-1.791-4.477-4.478-4.477zm-4.477 53.726h-44.77V20.797h44.77V65.57zm-67.156 17.908H158.82c-2.686 0-4.477 1.79-4.477 4.477v53.726c0 2.686 1.79 4.477 4.477 4.477h53.726c2.686 0 4.477-1.791 4.477-4.477V87.954c0-2.686-1.791-4.477-4.477-4.477zm-4.478 53.725h-44.77v-44.77h44.77v44.77zm76.111-53.725h-53.725c-2.686 0-4.477 1.79-4.477 4.477v53.726c0 2.686 1.79 4.477 4.477 4.477h53.725c2.687 0 4.478-1.791 4.478-4.477V87.954c0-2.686-1.791-4.477-4.478-4.477zm-4.477 53.725h-44.77v-44.77h44.77v44.77zM70.546 155.343H16.82c-2.686 0-4.477 1.79-4.477 4.477v53.726c0 2.686 1.79 4.477 4.477 4.477h53.726c2.686 0 4.477-1.791 4.477-4.477V159.82c0-2.686-1.791-4.477-4.477-4.477zm-4.477 53.725H21.297v-44.77H66.07v44.77zm76.11-53.725H88.455c-2.686 0-4.477 1.79-4.477 4.477v53.726c0 2.686 1.79 4.477 4.477 4.477h53.726c2.686 0 4.477-1.791 4.477-4.477V159.82c0-2.686-1.791-4.477-4.477-4.477zm-4.477 53.725h-44.77v-44.77h44.77v44.77zm-67.156 17.909H16.82c-2.686 0-4.477 1.79-4.477 4.477v53.725c0 2.687 1.79 4.478 4.477 4.478h53.726c2.686 0 4.477-1.791 4.477-4.478v-53.725c0-2.686-1.791-4.477-4.477-4.477zm-4.477 53.725H21.297v-44.77H66.07v44.77zm76.11-53.725H88.455c-2.686 0-4.477 1.79-4.477 4.477v53.725c0 2.687 1.79 4.478 4.477 4.478h53.726c2.686 0 4.477-1.791 4.477-4.478v-53.725c0-2.686-1.791-4.477-4.477-4.477zm-4.477 53.725h-44.77v-44.77h44.77v44.77z"/></g>
			
	<linearGradient id="picture-gradient" x1="0" y1="0" y2="1" x2="0" >
		<stop stop-color="#fdfe9a" offset="0%"/>
		<stop stop-color="#0feaf8" offset="100%"/>
	</linearGradient>

		</defs>

		

			<use xlink:href="#background" fill="url(#background-gradient)" />

		

			<g mask="url(#mask)">
				<g transform="
				        translate(
                                50 50
)
                            translate(0 0)  scale(0.5)  
                            translate(
                                -50 -50
)">
						<use xlink:href="#picture" fill="url(#picture-gradient)"  />
				</g>
			</g>

		

			<use xlink:href="#gloss-top" opacity="1" />


	</svg>
